<?xml version="1.0" encoding="UTF-8"?>
<svg width="99px" height="27px" viewBox="0 0 99 27" version="1.1" xmlns="http://www.w3.org/2000/svg" xmlns:xlink="http://www.w3.org/1999/xlink">
    <title>Group 5</title>
    <g id="dApp" stroke="none" stroke-width="1" fill="none" fill-rule="evenodd">
        <g id="Nous-Logo-Black" fill="#FFFFFF" fill-rule="nonzero">
            <g id="Group-5">
                <g id="Group" transform="translate(45.000000, 7.000000)">
                    <path d="M0,14 L0,0.355932203 L2.71244843,0.355932203 L2.71244843,4.58757062 L3.06624606,4.58757062 L3.06624606,14 L0,14 Z M9.3952924,14 L9.3952924,7.43502825 C9.3952924,7 9.35598156,6.52542373 9.31667071,6.01129944 C9.27735986,5.49717514 9.12011648,4.98305085 8.92356224,4.50847458 C8.72700801,4.03389831 8.37321039,3.63841808 7.98010192,3.3220339 C7.5476826,3.00564972 6.99733074,2.84745763 6.25042465,2.84745763 C5.85731619,2.84745763 5.50351856,2.92655367 5.11041009,3.04519774 C4.71730163,3.16384181 4.40281485,3.40112994 4.08832808,3.6779661 C3.7738413,3.99435028 3.53797622,4.38983051 3.34142198,4.94350282 C3.14486775,5.49717514 3.06624606,6.16949153 3.06624606,7 L1.2579471,6.24858757 C1.2579471,5.10169492 1.49381218,4.03389831 1.9262315,3.08474576 C2.35865081,2.13559322 3.02693521,1.38418079 3.89177384,0.830508475 C4.75661247,0.276836158 5.81800534,0 7.11526329,0 C8.1373453,0 8.96287309,0.15819209 9.59184664,0.514124294 C10.260131,0.870056497 10.771172,1.26553672 11.1642805,1.81920904 C11.557389,2.33333333 11.8325649,2.88700565 12.0291191,3.48022599 C12.2256734,4.07344633 12.3436059,4.62711864 12.3829168,5.14124294 C12.4222276,5.65536723 12.4615385,6.09039548 12.4615385,6.40677966 L12.4615385,14 L9.3952924,14 Z" id="Shape"></path>
                    <path d="M20.7886073,14 C19.4710025,14 18.2696569,13.6923077 17.3008298,13.1153846 C16.2932496,12.5 15.5181879,11.6923077 14.9756448,10.6538462 C14.3943485,9.57692308 14.1230769,8.34615385 14.1230769,7 C14.1230769,5.61538462 14.3943485,4.38461538 14.9756448,3.34615385 C15.5181879,2.30769231 16.3320027,1.46153846 17.3008298,0.884615385 C18.30841,0.307692308 19.4710025,0 20.7498542,0 C22.1062122,0 23.2688047,0.307692308 24.2763848,0.884615385 C25.283965,1.5 26.0590267,2.30769231 26.6015699,3.34615385 C27.144113,4.38461538 27.4153846,5.61538462 27.4153846,6.96153846 C27.4153846,8.34615385 27.144113,9.53846154 26.5628168,10.6153846 C26.0202736,11.6538462 25.2452119,12.5 24.2376318,13.0769231 C23.2688047,13.6923077 22.1062122,14 20.7886073,14 Z M20.7886073,11.2307692 C21.9899529,11.2307692 22.8425207,10.8461538 23.423817,10.0384615 C24.0051133,9.26923077 24.2763848,8.23076923 24.2763848,7 C24.2763848,5.73076923 23.9663602,4.69230769 23.3850639,3.92307692 C22.8037677,3.15384615 21.9124467,2.76923077 20.7498542,2.76923077 C19.9360395,2.76923077 19.277237,2.96153846 18.773447,3.30769231 C18.2696569,3.65384615 17.882126,4.15384615 17.6108545,4.80769231 C17.3783359,5.42307692 17.2233236,6.19230769 17.2233236,7 C17.2233236,8.26923077 17.5333483,9.30769231 18.1146445,10.0769231 C18.773447,10.8461538 19.6260148,11.2307692 20.7886073,11.2307692 Z" id="Shape"></path>
                    <path d="M33.592429,14 C32.570347,14 31.7448192,13.8422535 31.1158457,13.4873239 C30.4475613,13.1323944 29.9365203,12.7380282 29.5434118,12.1859155 C29.1503033,11.6732394 28.8751274,11.1211268 28.6785732,10.5295775 C28.4820189,9.93802817 28.3640864,9.38591549 28.3247755,8.87323944 C28.2854647,8.36056338 28.2461538,7.92676056 28.2461538,7.61126761 L28.2461538,0 L31.3123999,0 L31.3123999,6.54647887 C31.3123999,6.98028169 31.3517107,7.45352113 31.3910216,7.96619718 C31.4303324,8.47887324 31.5875758,8.9915493 31.7841301,9.46478873 C31.9806843,9.93802817 32.3344819,10.3323944 32.7275904,10.6478873 C33.1600097,10.9633803 33.7103616,11.1211268 34.4572677,11.1211268 C34.8503761,11.1211268 35.2041737,11.0422535 35.5972822,10.9239437 C35.9903907,10.8056338 36.3048775,10.5690141 36.6193642,10.2929577 C36.933851,9.97746479 37.1697161,9.58309859 37.3662703,9.03098592 C37.5628246,8.47887324 37.6414463,7.8084507 37.6414463,6.98028169 L39.4497452,7.72957746 C39.4497452,8.87323944 39.2138801,9.93802817 38.7814608,10.884507 C38.3490415,11.8309859 37.6807571,12.5802817 36.8159185,13.1323944 C35.9510798,13.7239437 34.8503761,14 33.592429,14 Z M38.0345547,13.6056338 L38.0345547,9.38591549 L37.6807571,9.38591549 L37.6807571,0 L40.7076923,0 L40.7076923,13.6056338 L38.0345547,13.6056338 Z" id="Shape"></path>
                    <path d="M48.4426359,14 C46.7357312,14 45.3860856,13.6153846 44.3143082,12.8846154 C43.2425308,12.1538462 42.6074035,11.1153846 42.3692308,9.76923077 L45.505172,9.30769231 C45.6639538,9.96153846 46.0212129,10.4615385 46.5769493,10.8461538 C47.1326857,11.2307692 47.8075085,11.4230769 48.6411132,11.4230769 C49.3953269,11.4230769 49.9510633,11.2692308 50.3480179,11 C50.7449724,10.7307692 50.9434497,10.3461538 50.9434497,9.84615385 C50.9434497,9.53846154 50.8640588,9.30769231 50.705277,9.11538462 C50.5464951,8.92307692 50.2289315,8.76923077 49.752586,8.57692308 C49.236545,8.42307692 48.4823313,8.19230769 47.4502494,7.92307692 C46.2990811,7.61538462 45.3860856,7.30769231 44.7112628,6.96153846 C44.03644,6.61538462 43.5600945,6.23076923 43.2425308,5.76923077 C42.9646626,5.30769231 42.8058808,4.73076923 42.8058808,4.07692308 C42.8058808,3.26923077 43.0440536,2.53846154 43.4807036,1.92307692 C43.9173536,1.30769231 44.552481,0.846153846 45.3463901,0.5 C46.1402993,0.153846154 47.0929903,0 48.1647677,0 C49.236545,0 50.189236,0.153846154 50.9831452,0.461538462 C51.8167498,0.769230769 52.4915726,1.23076923 52.9679181,1.80769231 C53.483959,2.38461538 53.8015227,3.07692308 53.9206091,3.88461538 L50.7846679,4.42307692 C50.705277,3.84615385 50.4274088,3.42307692 49.9907587,3.07692308 C49.5541087,2.73076923 48.9189814,2.57692308 48.2044631,2.53846154 C47.4899449,2.5 46.894513,2.61538462 46.457863,2.84615385 C46.0212129,3.07692308 45.7830402,3.46153846 45.7830402,3.88461538 C45.7830402,4.15384615 45.8624311,4.34615385 46.0609084,4.53846154 C46.2196902,4.73076923 46.5769493,4.88461538 47.1326857,5.07692308 C47.6884222,5.26923077 48.4823313,5.46153846 49.5144132,5.73076923 C50.5861906,6 51.4594907,6.30769231 52.1343135,6.65384615 C52.7694408,7 53.2457863,7.42307692 53.56335,7.88461538 C53.8412182,8.38461538 54,8.96153846 54,9.65384615 C54,11 53.483959,12.0384615 52.4915726,12.8076923 C51.5785771,13.6153846 50.2289315,14 48.4426359,14 Z" id="Path"></path>
                </g>
                <path d="M5.31798561,5.70422535 C5.46570743,14.8309859 5.53956835,21.371831 5.53956835,21.5239437 C5.53956835,21.5239437 5.53956835,21.6 5.53956835,21.6760563 C5.53956835,21.6760563 5.61342926,21.6760563 5.68729017,21.6760563 C7.68153477,21.6760563 9.67577938,21.6760563 11.670024,21.6760563 C12.1870504,21.6760563 12.482494,21.9802817 12.482494,22.5126761 C12.482494,23.7295775 12.482494,25.0225352 12.482494,26.2394366 C12.482494,26.6957746 12.3347722,27 11.8177458,27 C11.0791367,27 10.3405276,27 9.60191847,27 C6.64748201,27 3.69304556,27 0.738609113,27 C0.295443645,27 0,26.771831 0,26.2394366 C0,17.7211268 0,9.2028169 0,0.684507042 C0,0.228169014 0.221582734,0 0.664748201,0 C2.43741007,0 4.13621103,0 5.9088729,0 C6.49976019,0 7.01678657,0.38028169 7.45995204,0.684507042 C8.34628297,1.21690141 9.158753,1.74929577 10.0450839,2.28169014 C10.7098321,2.73802817 11.4484412,3.11830986 12.1131894,3.49859155 C12.6302158,3.8028169 13.1472422,4.18309859 13.6642686,4.48732394 C14.181295,4.7915493 14.6983213,5.09577465 15.2153477,5.4 C15.7323741,5.70422535 16.2494005,6.08450704 16.7664269,6.38873239 C17.3573141,6.76901408 18.0220624,7.07323944 18.5390887,7.52957746 C19.2038369,7.98591549 20.016307,8.21408451 20.4594724,8.97464789 C20.4594724,9.05070423 20.5333333,9.12676056 20.5333333,9.12676056 C20.5333333,11.256338 20.5333333,13.3859155 20.5333333,15.5915493 C20.5333333,15.8957746 20.3856115,16.2 19.942446,16.2 C18.6868106,16.2 17.4311751,16.2760563 16.1755396,16.2760563 C15.806235,16.2760563 15.3630695,16.2760563 15.1414868,15.8197183 C15.1414868,15.743662 15.0676259,15.6676056 15.0676259,15.5915493 C15.0676259,14.5267606 14.993765,13.4619718 15.0676259,12.3971831 C15.0676259,11.7887324 14.7721823,11.6366197 14.4028777,11.4084507 C13.9597122,11.1042254 13.4426859,10.8 12.9995204,10.4957746 C12.4086331,10.115493 11.8177458,9.73521127 11.2268585,9.35492958 C10.783693,9.05070423 10.2666667,8.74647887 9.8235012,8.44225352 C9.23261391,8.06197183 8.64172662,7.68169014 8.05083933,7.37746479 C7.45995204,6.9971831 7.45995204,6.9971831 6.94292566,6.61690141 C6.20431655,6.23661972 5.68729017,5.93239437 5.31798561,5.70422535 Z M20.4315005,20.1355932 C19.5424833,19.5254237 18.6534661,18.9915254 17.7644489,18.3813559 C17.2458556,18.0762712 16.801347,17.7711864 16.2827536,17.3898305 C15.6900755,17.0084746 15.0973974,16.6271186 14.5047193,16.2457627 C14.0602107,16.0169492 13.6897869,15.7118644 13.2452783,15.4067797 C12.9489392,15.2542373 12.6526002,15.1016949 12.7266849,14.6440678 C12.8007697,13.5 12.7266849,12.3559322 12.7266849,11.2881356 C12.7266849,10.9067797 12.5044307,10.7542373 12.2080916,10.7542373 C10.8004811,10.7542373 9.39287054,10.7542373 8.05934478,10.7542373 C7.76300572,10.7542373 7.46666667,10.9830508 7.46666667,11.3644068 C7.46666667,13.2711864 7.54075143,15.2542373 7.46666667,17.1610169 C7.46666667,17.8474576 7.76300572,18.2288136 8.28159908,18.6101695 C9.24470102,19.220339 10.207803,19.7542373 11.0968201,20.3644068 C11.9858373,20.8983051 12.8748545,21.4322034 13.6897869,22.0423729 C14.6528888,22.6525424 15.541906,23.2627119 16.5050079,23.8728814 C17.3940251,24.4067797 18.2830423,24.940678 19.0979747,25.4745763 C19.616568,25.779661 20.1351614,26.1610169 20.57967,26.4661017 C20.9500938,26.6949153 21.3205176,27 21.839111,27 C23.6912301,27 25.617434,27 27.4695531,27 C27.6177226,27 27.7658921,26.9237288 27.8399769,26.8474576 C28.0622312,26.5423729 27.9881464,26.2372881 27.9881464,25.9322034 C27.9881464,17.5423729 27.9881464,9.22881356 27.9881464,0.838983051 C27.9140617,0.228813559 27.4695531,0 27.0250445,0 C23.394891,0 19.7647376,0 16.1345841,0 C15.6159908,0 15.4678212,0.228813559 15.4678212,0.686440678 C15.4678212,1.98305085 15.4678212,3.27966102 15.4678212,4.57627119 C15.4678212,5.03389831 15.6900755,5.18644068 16.0604994,5.18644068 C18.2089575,5.18644068 20.2833309,5.18644068 22.4317891,5.18644068 C22.5799586,5.18644068 22.5799586,5.26271186 22.5799586,5.33898305 C22.5799586,10.6016949 22.5799586,15.940678 22.5799586,21.2033898 C22.5799586,21.279661 22.5799586,21.3559322 22.5799586,21.4322034 C21.839111,21.0508475 21.0982633,20.5932203 20.4315005,20.1355932 Z" id="Shape"></path>
            </g>
        </g>
    </g>
</svg>