<?xml version="1.0" encoding="UTF-8"?>
<svg width="129px" height="126px" viewBox="0 0 129 126" version="1.1" xmlns="http://www.w3.org/2000/svg" xmlns:xlink="http://www.w3.org/1999/xlink">
    <title>Group</title>
    <defs>
        <filter x="-43.8%" y="-45.3%" width="187.6%" height="190.7%" filterUnits="objectBoundingBox" id="filter-1">
            <feOffset dx="0" dy="0" in="SourceAlpha" result="shadowOffsetOuter1"></feOffset>
            <feGaussianBlur stdDeviation="10" in="shadowOffsetOuter1" result="shadowBlurOuter1"></feGaussianBlur>
            <feColorMatrix values="0 0 0 0 0.65905231   0 0 0 0 0.65905231   0 0 0 0 0.65905231  0 0 0 0.5 0" type="matrix" in="shadowBlurOuter1" result="shadowMatrixOuter1"></feColorMatrix>
            <feMerge>
                <feMergeNode in="shadowMatrixOuter1"></feMergeNode>
                <feMergeNode in="SourceGraphic"></feMergeNode>
            </feMerge>
        </filter>
    </defs>
    <g id="Website" stroke="none" stroke-width="1" fill="none" fill-rule="evenodd">
        <g id="Beta" transform="translate(-147.000000, -148.000000)" fill="#000000" fill-rule="nonzero">
            <g id="Group" filter="url(#filter-1)" transform="translate(167.000000, 168.000000)">
                <path d="M16.9035971,18.1690141 C17.3731415,47.2394366 17.6079137,68.0732394 17.6079137,68.5577465 C17.6079137,68.5577465 17.6079137,68.8 17.6079137,69.0422535 C17.6079137,69.0422535 17.8426859,69.0422535 18.077458,69.0422535 C24.416307,69.0422535 30.7551559,69.0422535 37.0940048,69.0422535 C38.7374101,69.0422535 39.6764988,70.0112676 39.6764988,71.7070423 C39.6764988,75.5830986 39.6764988,79.7014085 39.6764988,83.5774648 C39.6764988,85.0309859 39.2069544,86 37.5635492,86 C35.2158273,86 32.8681055,86 30.5203837,86 C21.1294964,86 11.7386091,86 2.34772182,86 C0.939088729,86 0,85.2732394 0,83.5774648 C0,56.4450704 0,29.3126761 0,2.18028169 C0,0.726760563 0.704316547,0 2.11294964,0 C7.74748201,0 13.1472422,0 18.7817746,0 C20.659952,0 22.3033573,1.21126761 23.7119904,2.18028169 C26.5292566,3.87605634 29.1117506,5.57183099 31.9290168,7.26760563 C34.0419664,8.72112676 36.3896882,9.93239437 38.5026379,11.143662 C40.1460432,12.1126761 41.7894484,13.3239437 43.4328537,14.2929577 C45.076259,15.2619718 46.7196643,16.2309859 48.3630695,17.2 C50.0064748,18.1690141 51.6498801,19.3802817 53.2932854,20.3492958 C55.1714628,21.5605634 57.2844125,22.5295775 58.9278177,23.9830986 C61.0407674,25.4366197 63.6232614,26.1633803 65.0318945,28.5859155 C65.0318945,28.828169 65.2666667,29.0704225 65.2666667,29.0704225 C65.2666667,35.8535211 65.2666667,42.6366197 65.2666667,49.6619718 C65.2666667,50.6309859 64.7971223,51.6 63.3884892,51.6 C59.3973621,51.6 55.406235,51.8422535 51.4151079,51.8422535 C50.241247,51.8422535 48.8326139,51.8422535 48.1282974,50.3887324 C48.1282974,50.1464789 47.8935252,49.9042254 47.8935252,49.6619718 C47.8935252,46.2704225 47.658753,42.8788732 47.8935252,39.4873239 C47.8935252,37.5492958 46.9544365,37.0647887 45.7805755,36.3380282 C44.3719424,35.3690141 42.7285372,34.4 41.3199041,33.4309859 C39.4417266,32.2197183 37.5635492,31.0084507 35.6853717,29.7971831 C34.2767386,28.828169 32.6333333,27.8591549 31.2247002,26.8901408 C29.3465228,25.6788732 27.4683453,24.4676056 25.5901679,23.4985915 C23.7119904,22.2873239 23.7119904,22.2873239 22.0685851,21.0760563 C19.7208633,19.8647887 18.077458,18.8957746 16.9035971,18.1690141 Z M64.9429836,64.1355932 C62.117179,62.1920904 59.2913744,60.4915254 56.4655698,58.5480226 C54.8171838,57.5762712 53.4042815,56.6045198 51.7558955,55.3898305 C49.8720258,54.1751412 47.9881561,52.960452 46.1042863,51.7457627 C44.691384,51.0169492 43.5139655,50.0451977 42.1010632,49.0734463 C41.1591283,48.5875706 40.2171934,48.1016949 40.4526772,46.6440678 C40.6881609,43 40.4526772,39.3559322 40.4526772,35.9548023 C40.4526772,34.740113 39.746226,34.2542373 38.8042911,34.2542373 C34.3301005,34.2542373 29.8559099,34.2542373 25.6172031,34.2542373 C24.6752682,34.2542373 23.7333333,34.9830508 23.7333333,36.1977401 C23.7333333,42.2711864 23.968817,48.5875706 23.7333333,54.6610169 C23.7333333,56.8474576 24.6752682,58.0621469 26.3236542,59.2768362 C29.3849425,61.220339 32.4462308,62.920904 35.2720354,64.8644068 C38.09784,66.5649718 40.9236446,68.2655367 43.5139655,70.2090395 C46.5752538,72.1525424 49.4010584,74.0960452 52.4623467,76.039548 C55.2881512,77.740113 58.1139558,79.440678 60.7042767,81.1412429 C62.3526627,82.1129944 64.0010487,83.3276836 65.413951,84.299435 C66.5913696,85.0282486 67.7687882,86 69.4171742,86 C75.3042671,86 81.4268437,86 87.3139366,86 C87.784904,86 88.2558715,85.7570621 88.4913552,85.5141243 C89.1978063,84.5423729 88.9623226,83.5706215 88.9623226,82.5988701 C88.9623226,55.8757062 88.9623226,29.3954802 88.9623226,2.67231638 C88.7268389,0.728813559 87.3139366,0 85.9010343,0 C74.3623322,0 62.8236302,0 51.2849281,0 C49.6365421,0 49.1655746,0.728813559 49.1655746,2.18644068 C49.1655746,6.31638418 49.1655746,10.4463277 49.1655746,14.5762712 C49.1655746,16.0338983 49.8720258,16.519774 51.0494444,16.519774 C57.8784721,16.519774 64.4720162,16.519774 71.3010439,16.519774 C71.7720114,16.519774 71.7720114,16.7627119 71.7720114,17.0056497 C71.7720114,33.7683616 71.7720114,50.7740113 71.7720114,67.5367232 C71.7720114,67.779661 71.7720114,68.0225989 71.7720114,68.2655367 C69.4171742,67.0508475 67.062337,65.5932203 64.9429836,64.1355932 Z" id="Shape"></path>
            </g>
        </g>
    </g>
</svg>